<svg width="67" height="10" viewBox="0 0 67 10" fill="none" xmlns="http://www.w3.org/2000/svg">
<path d="M0.368 9V0.599999H3.992C4.928 0.599999 5.652 0.787999 6.164 1.164C6.684 1.54 6.944 2.072 6.944 2.76C6.944 3.216 6.836 3.6 6.62 3.912C6.412 4.224 6.124 4.46 5.756 4.62C5.396 4.78 5 4.86 4.568 4.86L4.772 4.572C5.308 4.572 5.768 4.656 6.152 4.824C6.544 4.984 6.848 5.228 7.064 5.556C7.28 5.876 7.388 6.276 7.388 6.756C7.388 7.468 7.124 8.02 6.596 8.412C6.076 8.804 5.288 9 4.232 9H0.368ZM1.256 8.268H4.22C4.956 8.268 5.52 8.144 5.912 7.896C6.304 7.64 6.5 7.236 6.5 6.684C6.5 6.14 6.304 5.744 5.912 5.496C5.52 5.24 4.956 5.112 4.22 5.112H1.16V4.38H3.932C4.604 4.38 5.124 4.252 5.492 3.996C5.868 3.74 6.056 3.36 6.056 2.856C6.056 2.344 5.868 1.964 5.492 1.716C5.124 1.46 4.604 1.332 3.932 1.332H1.256V8.268ZM11.8029 9.06C11.1949 9.06 10.6469 8.924 10.1589 8.652C9.67888 8.372 9.29888 7.992 9.01888 7.512C8.73888 7.024 8.59888 6.468 8.59888 5.844C8.59888 5.212 8.73888 4.656 9.01888 4.176C9.29888 3.696 9.67888 3.32 10.1589 3.048C10.6389 2.776 11.1869 2.64 11.8029 2.64C12.4269 2.64 12.9789 2.776 13.4589 3.048C13.9469 3.32 14.3269 3.696 14.5989 4.176C14.8789 4.656 15.0189 5.212 15.0189 5.844C15.0189 6.468 14.8789 7.024 14.5989 7.512C14.3269 7.992 13.9469 8.372 13.4589 8.652C12.9709 8.924 12.4189 9.06 11.8029 9.06ZM11.8029 8.304C12.2589 8.304 12.6629 8.204 13.0149 8.004C13.3669 7.796 13.6429 7.508 13.8429 7.14C14.0509 6.764 14.1549 6.332 14.1549 5.844C14.1549 5.348 14.0509 4.916 13.8429 4.548C13.6429 4.18 13.3669 3.896 13.0149 3.696C12.6629 3.488 12.2629 3.384 11.8149 3.384C11.3669 3.384 10.9669 3.488 10.6149 3.696C10.2629 3.896 9.98288 4.18 9.77488 4.548C9.56688 4.916 9.46288 5.348 9.46288 5.844C9.46288 6.332 9.56688 6.764 9.77488 7.14C9.98288 7.508 10.2629 7.796 10.6149 8.004C10.9669 8.204 11.3629 8.304 11.8029 8.304ZM19.3263 9.06C18.7183 9.06 18.1703 8.924 17.6823 8.652C17.2023 8.372 16.8223 7.992 16.5423 7.512C16.2623 7.024 16.1223 6.468 16.1223 5.844C16.1223 5.212 16.2623 4.656 16.5423 4.176C16.8223 3.696 17.2023 3.32 17.6823 3.048C18.1623 2.776 18.7103 2.64 19.3263 2.64C19.9503 2.64 20.5023 2.776 20.9823 3.048C21.4703 3.32 21.8503 3.696 22.1223 4.176C22.4023 4.656 22.5423 5.212 22.5423 5.844C22.5423 6.468 22.4023 7.024 22.1223 7.512C21.8503 7.992 21.4703 8.372 20.9823 8.652C20.4943 8.924 19.9423 9.06 19.3263 9.06ZM19.3263 8.304C19.7823 8.304 20.1863 8.204 20.5383 8.004C20.8903 7.796 21.1663 7.508 21.3663 7.14C21.5743 6.764 21.6783 6.332 21.6783 5.844C21.6783 5.348 21.5743 4.916 21.3663 4.548C21.1663 4.18 20.8903 3.896 20.5383 3.696C20.1863 3.488 19.7863 3.384 19.3383 3.384C18.8903 3.384 18.4903 3.488 18.1383 3.696C17.7863 3.896 17.5063 4.18 17.2983 4.548C17.0903 4.916 16.9863 5.348 16.9863 5.844C16.9863 6.332 17.0903 6.764 17.2983 7.14C17.5063 7.508 17.7863 7.796 18.1383 8.004C18.4903 8.204 18.8863 8.304 19.3263 8.304ZM24.9538 7.368L24.9778 6.276L28.9018 2.7H29.9458L27.1738 5.352L26.6938 5.76L24.9538 7.368ZM24.2818 9V0.0959995H25.1338V9H24.2818ZM29.1658 9L26.5378 5.724L27.0898 5.064L30.2098 9H29.1658ZM33.6502 9.072C33.1062 9.072 32.6222 8.984 32.1982 8.808C31.7742 8.624 31.4382 8.372 31.1902 8.052C30.9502 7.732 30.8302 7.36 30.8302 6.936C30.8302 6.576 30.9102 6.248 31.0702 5.952C31.2302 5.648 31.4862 5.352 31.8382 5.064C32.1982 4.768 32.6742 4.46 33.2662 4.14C33.7702 3.86 34.1622 3.62 34.4422 3.42C34.7302 3.212 34.9342 3.016 35.0542 2.832C35.1742 2.64 35.2342 2.436 35.2342 2.22C35.2342 1.908 35.1262 1.656 34.9102 1.464C34.7022 1.272 34.4022 1.176 34.0102 1.176C33.5862 1.176 33.2582 1.284 33.0262 1.5C32.7942 1.708 32.6782 1.98 32.6782 2.316C32.6782 2.484 32.7022 2.644 32.7502 2.796C32.8062 2.948 32.9062 3.116 33.0502 3.3C33.2022 3.484 33.4102 3.716 33.6742 3.996L38.1142 8.568L37.6222 9.132L32.9902 4.368C32.7102 4.072 32.4862 3.816 32.3182 3.6C32.1582 3.376 32.0462 3.164 31.9822 2.964C31.9182 2.764 31.8862 2.552 31.8862 2.328C31.8862 1.968 31.9702 1.656 32.1382 1.392C32.3142 1.12 32.5622 0.911999 32.8822 0.767999C33.2022 0.615999 33.5782 0.539999 34.0102 0.539999C34.4022 0.539999 34.7422 0.608 35.0302 0.744C35.3262 0.872 35.5542 1.06 35.7142 1.308C35.8822 1.556 35.9662 1.856 35.9662 2.208C35.9662 2.512 35.8902 2.796 35.7382 3.06C35.5942 3.324 35.3542 3.584 35.0182 3.84C34.6822 4.088 34.2262 4.368 33.6502 4.68C33.1462 4.96 32.7462 5.216 32.4502 5.448C32.1622 5.68 31.9582 5.908 31.8382 6.132C31.7182 6.348 31.6582 6.588 31.6582 6.852C31.6582 7.156 31.7422 7.424 31.9102 7.656C32.0862 7.88 32.3262 8.056 32.6302 8.184C32.9422 8.304 33.2982 8.364 33.6982 8.364C34.2582 8.364 34.7582 8.248 35.1982 8.016C35.6382 7.784 36.0062 7.432 36.3022 6.96C36.6062 6.488 36.8262 5.896 36.9622 5.184L37.6462 5.4C37.4942 6.2 37.2342 6.872 36.8662 7.416C36.4982 7.96 36.0422 8.372 35.4982 8.652C34.9542 8.932 34.3382 9.072 33.6502 9.072ZM41.7912 9L38.0712 0.599999H39.0312L42.5112 8.508H41.9832L45.4872 0.599999H46.3872L42.6672 9H41.7912ZM47.3911 9V2.7H48.2431V9H47.3911ZM47.8231 1.308C47.6471 1.308 47.4991 1.248 47.3791 1.128C47.2591 1.008 47.1991 0.864 47.1991 0.696C47.1991 0.527999 47.2591 0.387999 47.3791 0.275999C47.4991 0.155999 47.6471 0.0959995 47.8231 0.0959995C47.9991 0.0959995 48.1471 0.151999 48.2671 0.263999C48.3871 0.375999 48.4471 0.516 48.4471 0.684C48.4471 0.86 48.3871 1.008 48.2671 1.128C48.1551 1.248 48.0071 1.308 47.8231 1.308ZM53.2898 9.06C52.6338 9.06 52.0578 8.924 51.5618 8.652C51.0658 8.372 50.6778 7.992 50.3978 7.512C50.1178 7.024 49.9778 6.468 49.9778 5.844C49.9778 5.22 50.1098 4.668 50.3738 4.188C50.6458 3.708 51.0138 3.332 51.4778 3.06C51.9498 2.78 52.4778 2.64 53.0618 2.64C53.6538 2.64 54.1778 2.776 54.6338 3.048C55.0978 3.312 55.4618 3.688 55.7258 4.176C55.9898 4.656 56.1218 5.212 56.1218 5.844C56.1218 5.884 56.1178 5.928 56.1098 5.976C56.1098 6.016 56.1098 6.06 56.1098 6.108H50.6258V5.472H55.6538L55.3178 5.724C55.3178 5.268 55.2178 4.864 55.0178 4.512C54.8258 4.152 54.5618 3.872 54.2258 3.672C53.8898 3.472 53.5018 3.372 53.0618 3.372C52.6298 3.372 52.2418 3.472 51.8978 3.672C51.5538 3.872 51.2858 4.152 51.0938 4.512C50.9018 4.872 50.8058 5.284 50.8058 5.748V5.88C50.8058 6.36 50.9098 6.784 51.1178 7.152C51.3338 7.512 51.6298 7.796 52.0058 8.004C52.3898 8.204 52.8258 8.304 53.3138 8.304C53.6978 8.304 54.0538 8.236 54.3818 8.1C54.7178 7.964 55.0058 7.756 55.2458 7.476L55.7258 8.028C55.4458 8.364 55.0938 8.62 54.6698 8.796C54.2538 8.972 53.7938 9.06 53.2898 9.06ZM59.0228 9L56.6468 2.7H57.4628L59.6228 8.544H59.2508L61.4708 2.7H62.2028L64.3988 8.544H64.0268L66.2228 2.7H67.0028L64.6148 9H63.8108L61.6988 3.504H61.9508L59.8268 9H59.0228Z" fill="black"/>
</svg>
