<svg width="10" height="12" viewBox="0 0 10 12" fill="none" xmlns="http://www.w3.org/2000/svg">
<path d="M3.1084 0.772461C3.71615 0.772512 4.21751 0.877716 4.6123 1.08789C5.00719 1.29528 5.30096 1.57546 5.49414 1.92773C5.68729 2.27713 5.78417 2.66474 5.78418 3.09082C5.78418 3.46564 5.71738 3.77527 5.58398 4.01953C5.4533 4.26385 5.27939 4.45756 5.06348 4.59961C4.85052 4.74152 4.61899 4.8469 4.36914 4.91504V5C4.63619 5.01705 4.90492 5.1108 5.1748 5.28125C5.44466 5.4517 5.67074 5.69649 5.85254 6.01465C6.03416 6.33271 6.12498 6.72171 6.125 7.18164C6.125 7.61909 6.02597 8.0129 5.82715 8.3623C5.71713 8.55562 5.5701 8.72505 5.38965 8.87402L6.00586 10.6191H6.1084L8.69922 3.27246H9.80664L6.60254 12H5.51172L4.53027 9.3291C4.16178 9.44242 3.72168 9.5 3.20996 9.5H0.0566406V0.772461H3.1084ZM1.11328 8.5625H3.20996C3.60582 8.5625 3.93507 8.51554 4.19922 8.42773L3.13477 5.52832H1.11328V8.5625ZM4.99219 7.74707C5.07573 7.57458 5.11914 7.38657 5.11914 7.18164C5.11911 6.88625 5.04409 6.61323 4.89355 6.36328C4.75288 6.12714 4.55495 5.93793 4.30273 5.79102L4.99219 7.74707ZM1.11328 4.6084H2.79688L2.30664 3.27246H3.41504L3.83398 4.46191C3.86751 4.44805 3.90205 4.43679 3.93457 4.4209C4.19309 4.2959 4.39728 4.11887 4.54785 3.8916C4.70122 3.66435 4.77832 3.39759 4.77832 3.09082C4.7783 2.7074 4.64487 2.38223 4.37793 2.11523C4.11095 1.84542 3.68772 1.71003 3.1084 1.70996H1.11328V4.6084Z" fill="black"/>
</svg>
